<svg width="141" height="50" viewBox="0 0 141 50" fill="none" xmlns="http://www.w3.org/2000/svg">
<g clip-path="url(#clip0)">
<path d="M97.4636 24.207C96.857 24.207 96.2682 24.1321 95.6972 23.9822C95.1265 23.8323 94.6627 23.6325 94.3058 23.3828L95.0015 21.82C95.337 22.0412 95.726 22.2197 96.1684 22.3551C96.6108 22.4908 97.0461 22.5585 97.4743 22.5585C98.2878 22.5585 98.6946 22.3551 98.6946 21.9484C98.6946 21.7343 98.5767 21.5774 98.3413 21.4774C98.1129 21.3705 97.7418 21.2598 97.2281 21.1457C96.6643 21.0243 96.1933 20.8958 95.8151 20.7603C95.4368 20.6175 95.1122 20.3928 94.8409 20.086C94.5698 19.779 94.4341 19.3651 94.4341 18.8443C94.4341 18.3876 94.5591 17.9773 94.8088 17.6133C95.0586 17.2422 95.4297 16.9496 95.922 16.7355C96.4217 16.5214 97.0318 16.4144 97.7525 16.4144C98.2448 16.4144 98.7302 16.4715 99.2083 16.5856C99.6864 16.6927 100.107 16.8533 100.471 17.0673L99.8185 18.6409C99.1049 18.2555 98.4126 18.0628 97.7418 18.0628C97.3208 18.0628 97.014 18.127 96.8213 18.2555C96.6286 18.3767 96.5322 18.5373 96.5322 18.7371C96.5322 18.937 96.6464 19.0869 96.8748 19.1867C97.1031 19.2867 97.4707 19.3901 97.9773 19.4972C98.5482 19.6184 99.0192 19.7505 99.3903 19.8933C99.7685 20.0288 100.093 20.25 100.364 20.5569C100.643 20.8566 100.782 21.2669 100.782 21.788C100.782 22.2375 100.657 22.6443 100.407 23.0081C100.157 23.3721 99.7828 23.6646 99.2831 23.8858C98.7837 24.0999 98.1771 24.207 97.4636 24.207Z" fill="#FF8000"/>
<path d="M109.222 18.1591C109.935 18.1591 110.503 18.3732 110.924 18.8013C111.352 19.2297 111.566 19.8755 111.566 20.7389V24.0571H109.532V21.0707C109.532 20.6639 109.454 20.3643 109.296 20.1716C109.147 19.9789 108.932 19.8826 108.654 19.8826C108.347 19.8826 108.101 19.9896 107.916 20.2036C107.73 20.4177 107.637 20.7425 107.637 21.1778V24.0571H105.604V21.0707C105.604 20.2785 105.311 19.8826 104.726 19.8826C104.412 19.8826 104.162 19.9896 103.977 20.2036C103.791 20.4177 103.698 20.7425 103.698 21.1778V24.0571H101.664V18.2555H103.602V18.8657C103.816 18.6302 104.069 18.4553 104.362 18.3411C104.662 18.2199 104.986 18.1591 105.336 18.1591C105.743 18.1591 106.107 18.2341 106.428 18.3841C106.749 18.5338 107.009 18.7621 107.209 19.0691C107.437 18.7764 107.727 18.5516 108.076 18.3948C108.426 18.2377 108.808 18.1591 109.222 18.1591Z" fill="#FF8000"/>
<path d="M115.322 18.1591C116.285 18.1591 117.021 18.3805 117.527 18.8229C118.034 19.2582 118.287 19.929 118.287 20.8352V24.0571H116.393V23.3079C116.1 23.8715 115.529 24.1535 114.68 24.1535C114.23 24.1535 113.841 24.0749 113.513 23.9181C113.185 23.761 112.935 23.5505 112.764 23.2865C112.6 23.0152 112.518 22.7084 112.518 22.3658C112.518 21.8165 112.728 21.3919 113.149 21.092C113.57 20.7853 114.22 20.6318 115.097 20.6318H116.253C116.218 20.0181 115.807 19.7113 115.022 19.7113C114.744 19.7113 114.462 19.7577 114.177 19.8503C113.891 19.9361 113.649 20.0573 113.449 20.2143L112.764 18.8336C113.085 18.6195 113.474 18.4553 113.931 18.3411C114.394 18.2199 114.858 18.1591 115.322 18.1591ZM115.247 22.8691C115.483 22.8691 115.69 22.8118 115.868 22.6977C116.046 22.5835 116.175 22.4159 116.253 22.1945V21.6915H115.376C114.783 21.6915 114.487 21.8878 114.487 22.2803C114.487 22.4587 114.555 22.6013 114.691 22.7084C114.826 22.8154 115.012 22.8691 115.247 22.8691Z" fill="#FF8000"/>
<path d="M121.508 18.9512C121.715 18.6873 121.983 18.491 122.311 18.3625C122.647 18.227 123.028 18.1591 123.456 18.1591V19.9896C123.271 19.9682 123.118 19.9575 122.996 19.9575C122.561 19.9575 122.218 20.0751 121.969 20.3108C121.726 20.5463 121.605 20.9065 121.605 21.3919V24.0571H119.571V18.2555H121.508V18.9512Z" fill="#FF8000"/>
<path d="M128.477 23.8216C128.306 23.9288 128.095 24.0107 127.845 24.0678C127.603 24.125 127.342 24.1535 127.064 24.1535C126.307 24.1535 125.726 23.968 125.319 23.5968C124.912 23.2257 124.709 22.6728 124.709 21.9377V19.9895H123.863V18.4696H124.709V16.9603H126.743V18.4696H128.07V19.9895H126.743V21.9163C126.743 22.1232 126.796 22.2874 126.903 22.4088C127.018 22.5229 127.167 22.5799 127.353 22.5799C127.588 22.5799 127.795 22.5193 127.974 22.3979L128.477 23.8216Z" fill="#FF8000"/>
<path d="M94.309 27.6772H96.4284V33.4894H100.004V35.17H94.309V27.6772Z" fill="#FF8000"/>
<path d="M107.607 35.17L107.586 31.1989L105.659 34.4315H104.717L102.801 31.3058V35.17H100.842V27.6772H102.587L105.22 32.0016L107.789 27.6772H109.534L109.555 35.17H107.607Z" fill="#FF8000"/>
<path d="M113.688 35.3199C113.082 35.3199 112.493 35.2451 111.922 35.0951C111.351 34.9452 110.887 34.7454 110.53 34.4957L111.226 32.9329C111.562 33.1542 111.951 33.3326 112.393 33.468C112.835 33.6037 113.271 33.6714 113.699 33.6714C114.512 33.6714 114.919 33.468 114.919 33.0613C114.919 32.8472 114.802 32.6903 114.566 32.5903C114.338 32.4834 113.967 32.3727 113.453 32.2586C112.889 32.1372 112.418 32.0087 112.04 31.8732C111.662 31.7304 111.337 31.5057 111.066 31.1989C110.795 30.8919 110.659 30.478 110.659 29.9572C110.659 29.5005 110.784 29.0902 111.034 28.7262C111.283 28.3551 111.655 28.0626 112.147 27.8485C112.646 27.6344 113.256 27.5273 113.977 27.5273C114.47 27.5273 114.955 27.5843 115.433 27.6986C115.911 27.8057 116.332 27.9661 116.696 28.1802L116.043 29.7538C115.33 29.3684 114.637 29.1757 113.967 29.1757C113.546 29.1757 113.239 29.2399 113.046 29.3684C112.853 29.4896 112.757 29.6502 112.757 29.8501C112.757 30.0499 112.871 30.1998 113.1 30.2996C113.328 30.3996 113.695 30.503 114.202 30.6101C114.773 30.7313 115.244 30.8634 115.615 31.0062C115.993 31.1417 116.318 31.3629 116.589 31.6698C116.867 31.9695 117.007 32.3798 117.007 32.9009C117.007 33.3504 116.882 33.7572 116.632 34.121C116.382 34.485 116.007 34.7775 115.508 34.9987C115.009 35.2128 114.402 35.3199 113.688 35.3199Z" fill="#FF8000"/>
<path fill-rule="evenodd" clip-rule="evenodd" d="M84.8058 16.0532H86.8187V35.1677C86.8187 35.1677 86.8187 35.1677 85.8122 35.1677C84.8058 35.1677 84.8058 35.1677 84.8058 35.1677V16.0532Z" fill="#FF8000"/>
<path d="M25.8072 22.5638C25.3199 22.1446 24.7862 21.8122 24.2264 21.5641C24.4461 21.3812 24.654 21.18 24.8476 20.9586C26.8215 18.7012 26.5774 15.283 24.3022 13.3246C23.2685 12.4351 21.995 12 20.7273 12.0008L13 12V35H28V27.3801C28.0126 25.5987 27.2694 23.8232 25.8072 22.5638ZM24.8182 33.1961H22.0909V25.5294H18.9091V33.1961H16.1818V13.8039H19.3636C21.0581 13.8039 22.4815 14.9539 22.8855 16.5098H19.8182V18.3137H22.8838C22.4806 19.8688 21.0598 21.0179 19.367 21.0196H19.3603H18V22.8235H20.2727C21.3291 22.8227 22.3906 23.186 23.2517 23.9268C24.287 24.8179 24.8165 26.0723 24.8173 27.3333H24.819L24.8182 33.1961Z" fill="#002D6E"/>
<path d="M41.665 19.974C42.1197 20.1206 42.4643 20.348 42.699 20.656C42.941 20.964 43.062 21.3453 43.062 21.8C43.062 22.482 42.7943 23.021 42.259 23.417C41.731 23.8057 40.9793 24 40.004 24H36.055V16.3H39.795C40.719 16.3 41.434 16.476 41.94 16.828C42.4533 17.1726 42.71 17.664 42.71 18.302C42.71 18.676 42.6183 19.006 42.435 19.292C42.259 19.578 42.0023 19.8053 41.665 19.974ZM38.2 19.38H39.586C40.202 19.38 40.51 19.127 40.51 18.621C40.51 18.115 40.202 17.862 39.586 17.862H38.2V19.38ZM39.916 22.438C40.5467 22.438 40.862 22.1703 40.862 21.635C40.862 21.1143 40.5467 20.854 39.916 20.854H38.2V22.438H39.916Z" fill="#002D6E"/>
<path d="M47.5295 19.886C48.3142 19.8933 48.9045 20.0693 49.3005 20.414C49.6965 20.7587 49.8945 21.25 49.8945 21.888C49.8945 22.5553 49.6635 23.076 49.2015 23.45C48.7469 23.824 48.1015 24.0073 47.2655 24H44.1195V18.038H46.1985V19.886H47.5295ZM50.4005 18.038H52.4795V24H50.4005V18.038ZM47.0565 22.57C47.5845 22.57 47.8485 22.3317 47.8485 21.855C47.8485 21.6203 47.7825 21.448 47.6505 21.338C47.5185 21.228 47.3205 21.1693 47.0565 21.162H46.1985V22.559L47.0565 22.57Z" fill="#002D6E"/>
<path d="M63.3439 18.038V24H53.8949V18.038H55.9739V22.328H57.5909V18.038H59.6699V22.328H61.2759V18.038H63.3439Z" fill="#002D6E"/>
<path d="M67.5493 21.877H66.8453V24H64.7553V18.038H66.8453V20.238H67.5933L69.0563 18.038H71.2673L69.2653 20.898L71.3993 24H68.9353L67.5493 21.877Z" fill="#002D6E"/>
<path d="M74.4158 17.939C75.4058 17.939 76.1611 18.1663 76.6818 18.621C77.2024 19.0683 77.4628 19.7577 77.4628 20.689V24H75.5158V23.23C75.2151 23.8093 74.6284 24.099 73.7558 24.099C73.2938 24.099 72.8941 24.0183 72.5568 23.857C72.2194 23.6957 71.9628 23.4793 71.7868 23.208C71.6181 22.9293 71.5338 22.614 71.5338 22.262C71.5338 21.6973 71.7501 21.261 72.1828 20.953C72.6154 20.6377 73.2828 20.48 74.1848 20.48H75.3728C75.3361 19.8493 74.9144 19.534 74.1078 19.534C73.8218 19.534 73.5321 19.5817 73.2388 19.677C72.9454 19.765 72.6961 19.8897 72.4908 20.051L71.7868 18.632C72.1168 18.412 72.5164 18.2433 72.9858 18.126C73.4624 18.0013 73.9391 17.939 74.4158 17.939ZM74.3388 22.779C74.5808 22.779 74.7934 22.7203 74.9768 22.603C75.1601 22.4857 75.2921 22.3133 75.3728 22.086V21.569H74.4708C73.8621 21.569 73.5578 21.7707 73.5578 22.174C73.5578 22.3573 73.6274 22.504 73.7668 22.614C73.9061 22.724 74.0968 22.779 74.3388 22.779Z" fill="#002D6E"/>
<path d="M36 27.3H39.641C40.4843 27.3 41.2323 27.4577 41.885 27.773C42.5377 28.0883 43.0437 28.5357 43.403 29.115C43.7623 29.6943 43.942 30.3727 43.942 31.15C43.942 31.9273 43.7623 32.6057 43.403 33.185C43.0437 33.7643 42.5377 34.2117 41.885 34.527C41.2323 34.8423 40.4843 35 39.641 35H36V27.3ZM39.553 33.262C40.213 33.262 40.741 33.075 41.137 32.701C41.5403 32.327 41.742 31.81 41.742 31.15C41.742 30.49 41.5403 29.973 41.137 29.599C40.741 29.225 40.213 29.038 39.553 29.038H38.178V33.262H39.553Z" fill="#002D6E"/>
<path d="M44.9889 29.038H47.0789V35H44.9889V29.038ZM46.0339 28.378C45.6526 28.378 45.3446 28.2717 45.1099 28.059C44.8752 27.8463 44.7579 27.5823 44.7579 27.267C44.7579 26.9517 44.8752 26.6877 45.1099 26.475C45.3446 26.2623 45.6526 26.156 46.0339 26.156C46.4152 26.156 46.7232 26.2587 46.9579 26.464C47.1926 26.662 47.3099 26.9187 47.3099 27.234C47.3099 27.564 47.1926 27.839 46.9579 28.059C46.7232 28.2717 46.4152 28.378 46.0339 28.378Z" fill="#002D6E"/>
<path d="M54.8501 29.038V33.911C54.8501 35.0183 54.5495 35.847 53.9481 36.397C53.3468 36.9543 52.4815 37.233 51.3521 37.233C50.7655 37.233 50.2155 37.167 49.7021 37.035C49.1888 36.903 48.7525 36.7087 48.3931 36.452L49.1521 34.989C49.3941 35.187 49.6985 35.341 50.0651 35.451C50.4391 35.5683 50.8058 35.627 51.1651 35.627C51.7151 35.627 52.1185 35.506 52.3751 35.264C52.6318 35.022 52.7601 34.6627 52.7601 34.186V33.988C52.3568 34.4573 51.7665 34.692 50.9891 34.692C50.4611 34.692 49.9735 34.5747 49.5261 34.34C49.0788 34.098 48.7231 33.7607 48.4591 33.328C48.1951 32.888 48.0631 32.382 48.0631 31.81C48.0631 31.2453 48.1951 30.7467 48.4591 30.314C48.7231 29.874 49.0788 29.5367 49.5261 29.302C49.9735 29.06 50.4611 28.939 50.9891 28.939C51.8398 28.939 52.4631 29.214 52.8591 29.764V29.038H54.8501ZM51.4841 33.031C51.8581 33.031 52.1661 32.9173 52.4081 32.69C52.6575 32.4627 52.7821 32.1693 52.7821 31.81C52.7821 31.4507 52.6611 31.161 52.4191 30.941C52.1771 30.7137 51.8655 30.6 51.4841 30.6C51.1028 30.6 50.7875 30.7137 50.5381 30.941C50.2961 31.161 50.1751 31.4507 50.1751 31.81C50.1751 32.1693 50.2998 32.4627 50.5491 32.69C50.7985 32.9173 51.1101 33.031 51.4841 33.031Z" fill="#002D6E"/>
<path d="M56.193 29.038H58.283V35H56.193V29.038ZM57.238 28.378C56.8567 28.378 56.5487 28.2717 56.314 28.059C56.0793 27.8463 55.962 27.5823 55.962 27.267C55.962 26.9517 56.0793 26.6877 56.314 26.475C56.5487 26.2623 56.8567 26.156 57.238 26.156C57.6193 26.156 57.9273 26.2587 58.162 26.464C58.3967 26.662 58.514 26.9187 58.514 27.234C58.514 27.564 58.3967 27.839 58.162 28.059C57.9273 28.2717 57.6193 28.378 57.238 28.378Z" fill="#002D6E"/>
<path d="M63.7552 34.758C63.5792 34.868 63.3629 34.9523 63.1062 35.011C62.8569 35.0697 62.5892 35.099 62.3032 35.099C61.5259 35.099 60.9282 34.9083 60.5102 34.527C60.0922 34.1457 59.8832 33.5773 59.8832 32.822V30.82H59.0142V29.258H59.8832V27.707H61.9732V29.258H63.3372V30.82H61.9732V32.8C61.9732 33.0127 62.0282 33.1813 62.1382 33.306C62.2556 33.4233 62.4096 33.482 62.6002 33.482C62.8422 33.482 63.0549 33.4197 63.2382 33.295L63.7552 34.758Z" fill="#002D6E"/>
<path d="M67.1022 28.939C68.0922 28.939 68.8475 29.1663 69.3682 29.621C69.8888 30.0683 70.1492 30.7577 70.1492 31.689V35H68.2022V34.23C67.9015 34.8093 67.3148 35.099 66.4422 35.099C65.9802 35.099 65.5805 35.0183 65.2432 34.857C64.9058 34.6957 64.6492 34.4793 64.4732 34.208C64.3045 33.9293 64.2202 33.614 64.2202 33.262C64.2202 32.6973 64.4365 32.261 64.8692 31.953C65.3018 31.6377 65.9692 31.48 66.8712 31.48H68.0592C68.0225 30.8493 67.6008 30.534 66.7942 30.534C66.5082 30.534 66.2185 30.5817 65.9252 30.677C65.6318 30.765 65.3825 30.8897 65.1772 31.051L64.4732 29.632C64.8032 29.412 65.2028 29.2433 65.6722 29.126C66.1488 29.0013 66.6255 28.939 67.1022 28.939ZM67.0252 33.779C67.2672 33.779 67.4798 33.7203 67.6632 33.603C67.8465 33.4857 67.9785 33.3133 68.0592 33.086V32.569H67.1572C66.5485 32.569 66.2442 32.7707 66.2442 33.174C66.2442 33.3573 66.3138 33.504 66.4532 33.614C66.5925 33.724 66.7832 33.779 67.0252 33.779Z" fill="#002D6E"/>
<path d="M71.4684 26.838H73.5584V35H71.4684V26.838Z" fill="#002D6E"/>
</g>
<defs>
<clipPath id="clip0">
<rect x="12.5" y="12" width="116" height="26" fill="white"/>
</clipPath>
</defs>
</svg>
